#!OML:ASF F:\VICON\USERDATA\INSTALL\Justin_Nancy\Justin_Nancy.ASF
:FULLY-SPECIFIED
:DEGREES
238
root -14.2252 16.8063 23.4785 5.34782 -46.2584 -6.78236
lowerback 6.15373 2.24333 3.53174
upperback -0.897231 3.39596 3.83132
thorax -4.41427 1.63015 1.65947
lowerneck -14.9233 -4.13822 -10.4789
upperneck 22.7849 -4.71207 5.84025
head 10.1207 -2.47101 3.18744
rclavicle -3.43649e-014 7.15625e-015
rhumerus -23.9986 -5.2553 -79.4471
rradius 45.2066
rwrist -6.46623
rhand -14.3855 15.2261
rfingers 7.12502
rthumb 11.7574 -14.4239
lclavicle -3.43649e-014 7.15625e-015
lhumerus -42.1517 18.2165 81.5786
lradius 17.6282
lwrist -18.019
lhand -16.2781 27.0053
lfingers 7.12502
lthumb 9.93186 56.751
rfemur 16.8058 5.80136 32.6911
rtibia 20.6162
rfoot -12.3798 -2.72023
rtoes -12.2973
lfemur -33.0283 -2.85598 -14.4533
ltibia 23.3977
lfoot -10.8772 6.30927
ltoes -7.92967
239
root -14.4042 16.7846 23.6823 5.07773 -46.1533 -6.91498
lowerback 6.2168 2.22303 3.67632
upperback -0.784156 3.37646 3.82426
thorax -4.32315 1.618 1.57299
lowerneck -14.9657 -4.32337 -10.3566
upperneck 22.8316 -4.98789 5.7779
head 10.1664 -2.59464 3.10609
rclavicle 4.05148e-014 6.36111e-015
rhumerus -24.1836 -5.96252 -79.2492
rradius 45.5596
rwrist -7.08041
rhand -13.4616 15.4361
rfingers 7.12502
rthumb 12.6482 -14.161
lclavicle 4.05148e-014 6.36111e-015
lhumerus -42.4498 18.3631 81.419
lradius 17.4843
lwrist -18.0306
lhand -16.209 26.7493
lfingers 7.12502
lthumb 9.99857 56.4918
rfemur 17.0254 5.3778 32.6828
rtibia 22.2836
rfoot -11.3223 -2.09024
rtoes -14.1345
lfemur -32.5002 -2.98254 -14.5509
ltibia 24.3062
lfoot -10.1849 4.1836
ltoes -9.56999
240
root -14.5853 16.7691 23.8916 4.45718 -46.269 -6.52317
lowerback 6.30482 2.29979 3.47627
upperback -0.729296 3.46154 3.65276
thorax -4.31631 1.66441 1.49527
lowerneck -14.7247 -4.15053 -10.0642
upperneck 22.7457 -4.82274 5.69978
head 10.0627 -2.5054 3.05412
rclavicle 6.61332e-014 -4.77083e-015
rhumerus -24.3474 -6.73122 -79.2002
rradius 45.5556
rwrist -8.23385
rhand -13.1728 16.0602
rfingers 7.12502
rthumb 12.9266 -13.5194
lclavicle 6.61332e-014 -4.77083e-015
lhumerus -42.6182 17.876 81.5071
lradius 17.2945
lwrist -17.605
lhand -15.984 27.0462
lfingers 7.12502
lthumb 10.2156 56.7781
rfemur 17.1749 4.99716 32.1472
rtibia 24.086
rfoot -9.98883 -1.20645
rtoes -15.2565
lfemur -31.9723 -3.42981 -14.9057
ltibia 25.3663
lfoot -9.08389 2.02796
ltoes -7.58943
241
root -14.7643 16.7694 24.1005 3.82107 -46.4606 -5.97592
lowerback 6.3087 2.38191 3.06747
upperback -0.655896 3.53325 3.51537
thorax -4.25736 1.71047 1.57427
lowerneck -14.6233 -4.1716 -10.1028
upperneck 22.7216 -4.9159 5.94417
head 10.0496 -2.52626 3.13618
rclavicle -1.55487e-014 -1.90833e-014
rhumerus -24.5048 -6.85906 -79.2484
rradius 45.7264
rwrist -10.1176
rhand -14.0038 16.3472
rfingers 7.12502
rthumb 12.1254 -13.2814
lclavicle -1.55487e-014 -1.90833e-014
lhumerus -42.5895 17.9237 81.3809
lradius 16.9363
lwrist -17.7598
lhand -15.688 27.0465
lfingers 7.12502
lthumb 10.5011 56.7642
rfemur 17.0518 4.63585 31.386
rtibia 26.192
rfoot -8.20537 -0.193369
rtoes -14.691
lfemur -31.6995 -4.1327 -15.2083
ltibia 26.5208
lfoot -7.04799 0.504622
ltoes -1.91886
242
root -14.9416 16.7814 24.3193 3.49776 -46.6585 -5.78027
lowerback 6.24923 2.44375 3.08004
upperback -0.695772 3.61218 3.40974
thorax -4.25805 1.74847 1.45183
lowerneck -14.649 -4.33205 -10.4098
upperneck 23.1766 -5.196 6.35621
head 10.2643 -2.64382 3.30271
rclavicle -5.00937e-014 3.97569e-015
rhumerus -24.9346 -7.18879 -79.2509
rradius 45.8601
rwrist -11.2764
rhand -14.9879 15.9266
rfingers 7.12502
rthumb 11.1764 -13.7558
lclavicle -5.00937e-014 3.97569e-015
lhumerus -42.8855 18.4153 80.8703
lradius 16.6382
lwrist -18.4085
lhand -15.3324 26.8058
lfingers 7.12502
lthumb 10.8441 56.5058
rfemur 16.5534 4.23643 30.7498
rtibia 28.7677
rfoot -5.8648 0.988936
rtoes -13.0098
lfemur -31.441 -4.02813 -15.5823
ltibia 27.6509
lfoot -5.14929 -0.615447
ltoes -2.0177
243
root -15.1183 16.8024 24.5349 3.02858 -46.822 -5.20707
lowerback 6.17005 2.50124 2.83329
upperback -0.885657 3.67142 3.24734
thorax -4.41571 1.781 1.41449
lowerneck -14.2703 -4.20842 -10.5022
upperneck 23.3691 -5.0795 6.44973
head 10.2544 -2.60014 3.3754
rclavicle 1.36447e-014 -5.1684e-014
rhumerus -25.4849 -8.19299 -79.0425
rradius 45.5929
rwrist -11.5876
rhand -15.0718 15.46
rfingers 7.12502
rthumb 11.0955 -14.2267
lclavicle 1.36447e-014 -5.1684e-014
lhumerus -43.4317 18.7302 80.4233
lradius 16.5016
lwrist -18.8114
lhand -15.3885 26.6991
lfingers 7.12502
lthumb 10.79 56.4019
rfemur 15.5547 3.86517 29.7924
rtibia 31.7777
rfoot -2.46486 1.97
rtoes -10.5965
lfemur -31.1879 -3.65598 -16.3445
ltibia 28.7479
lfoot -4.03636 -1.75192
ltoes -3.31232
244
root -15.2888 16.8152 24.7341 2.08827 -46.9015 -3.98373
lowerback 6.21996 2.5262 2.03535
upperback -1.02852 3.64476 2.95123
thorax -4.62163 1.78508 1.54899
lowerneck -14.0445 -4.12966 -10.3883
upperneck 23.5324 -5.03811 6.4616
head 10.262 -2.57813 3.3712
rclavicle 1.00082e-013 7.15625e-015
rhumerus -25.8531 -9.21584 -78.8959
rradius 45.0965
rwrist -11.7391
rhand -14.5078 15.8068
rfingers 7.12502
rthumb 11.6395 -13.85
lclavicle 1.00082e-013 7.15625e-015
lhumerus -43.6533 18.6776 80.2102
lradius 16.241
lwrist -18.8462
lhand -15.7225 27.0234
lfingers 7.12502
lthumb 10.4678 56.7428
rfemur 14.1482 3.53781 28.4655
rtibia 35.0885
rfoot 2.03561 2.45562
rtoes -8.52825
lfemur -30.9163 -3.49703 -17.4582
ltibia 29.8086
lfoot -3.21804 -2.79393
ltoes -3.53976
245
root -15.4593 16.8134 24.9226 1.18183 -47.096 -2.8675
lowerback 6.35101 2.63313 1.2133
upperback -1.09334 3.72127 2.65567
thorax -4.79618 1.84235 1.68534
lowerneck -14.048 -4.16822 -10.4911
upperneck 23.7697 -5.18647 6.85463
head 10.3756 -2.61613 3.51442
rclavicle -1.0225e-014 -1.98785e-014
rhumerus -26.3128 -10.1455 -78.8332
rradius 44.8897
rwrist -12.1055
rhand -14.0529 16.353
rfingers 7.12502
rthumb 12.0781 -13.2784
lclavicle -1.0225e-014 -1.98785e-014
lhumerus -43.7506 19.134 79.5729
lradius 15.9566
lwrist -19.6424
lhand -15.4192 27.2486
lfingers 7.12502
lthumb 10.7604 56.953
rfemur 12.4926 3.38492 27.2873
rtibia 38.5721
rfoot 6.50554 3.27704
rtoes -9.46812
lfemur -30.5066 -2.93841 -18.5099
ltibia 30.7522
lfoot -2.52754 -3.27546
ltoes -4.758
246
root -15.6358 16.8161 25.1207 0.298106 -47.3196 -1.91763
lowerback 6.30147 2.72814 0.657906
upperback -1.0187 3.79137 2.3898
thorax -4.70925 1.89014 1.71618
lowerneck -13.9544 -4.25391 -10.8614
upperneck 23.8044 -5.36963 7.3845
head 10.4144 -2.6776 3.74621
rclavicle -1.66793e-013 -1.43125e-014
rhumerus -26.7802 -11.0063 -78.7718
rradius 44.6475
rwrist -12.1437
rhand -14.2497 16.9133
rfingers 7.12502
rthumb 11.8883 -12.7292
lclavicle -1.66793e-013 -1.43125e-014
lhumerus -43.9056 19.8736 78.7987
lradius 15.9236
lwrist -20.5625
lhand -15.011 27.1542
lfingers 7.12502
lthumb 11.1541 56.8377
rfemur 10.9323 3.27416 26.1899
rtibia 42.0059
rfoot 10.355 4.40221
rtoes -10.9059
lfemur -29.8472 -2.37709 -19.454
ltibia 31.6076
lfoot -2.42648 -3.15864
ltoes -5.01956
247
root -15.8084 16.8302 25.3206 -0.460965 -47.4613 -1.29524
lowerback 6.33896 2.79273 0.510132
upperback -0.82619 3.84984 2.09369
thorax -4.51997 1.91944 1.48909
lowerneck -14.057 -4.31545 -10.8534
upperneck 23.6513 -5.50403 7.64206
head 10.3994 -2.70501 3.81615
rclavicle -2.36616e-014 -1.98785e-014
rhumerus -27.1222 -11.9086 -78.8318
rradius 44.3012
rwrist -11.9166
rhand -14.9681 17.0998
rfingers 7.12502
rthumb 11.1955 -12.5815
lclavicle -2.36616e-014 -1.98785e-014
lhumerus -43.7432 20.2969 78.2168
lradius 15.8728
lwrist -20.9643
lhand -14.729 27.1394
lfingers 7.12502
lthumb 11.4261 56.808
rfemur 9.53227 3.01747 25.3042
rtibia 45.2596
rfoot 13.8939 5.16037
rtoes -9.32013
lfemur -29.0531 -1.9141 -20.1293
ltibia 32.4673
lfoot -2.92444 -3.65117
ltoes -3.26821
248
root -15.9733 16.8457 25.5116 -0.947564 -47.6687 -0.939653
lowerback 6.49717 2.80732 0.35386
upperback -0.706704 3.8531 2.00312
thorax -4.48881 1.92348 1.47746
lowerneck -14.2925 -4.32513 -10.8613
upperneck 23.6208 -5.45161 7.51825
head 10.4256 -2.68894 3.77661
rclavicle -1.36416e-013 -2.78299e-015
rhumerus -27.4425 -12.3284 -78.8268
rradius 44.0194
rwrist -11.7848
rhand -15.4104 17.1011
rfingers 7.12502
rthumb 10.7689 -12.6029
lclavicle -1.36416e-013 -2.78299e-015
lhumerus -43.5955 20.7454 77.9346
lradius 15.7607
lwrist -21.0675
lhand -14.8394 27.1064
lfingers 7.12502
lthumb 11.3196 56.7809
rfemur 8.02611 2.83738 24.6323
rtibia 48.3597
rfoot 17.3229 4.94925
rtoes -4.18434
lfemur -28.3347 -1.29615 -20.6582
ltibia 33.3089
lfoot -3.62177 -4.5681
ltoes -1.53944
249
root -16.1347 16.8611 25.6874 -1.24841 -47.9374 -0.944688
lowerback 6.8692 2.80149 0.24283
upperback -0.626104 3.84471 2.1284
thorax -4.63085 1.92237 1.65351
lowerneck -14.5563 -4.31768 -10.9329
upperneck 23.7055 -5.29109 7.12597
head 10.4837 -2.66048 3.66678
rclavicle 7.74577e-014 7.15625e-015
rhumerus -27.908 -12.3438 -78.7118
rradius 43.8549
rwrist -11.6718
rhand -15.7062 16.9146
rfingers 7.12502
rthumb 10.4836 -12.804
lclavicle 7.74577e-014 7.15625e-015
lhumerus -43.7124 21.4088 77.7153
lradius 15.8765
lwrist -21.0103
lhand -15.0739 26.975
lfingers 7.12502
lthumb 11.0935 56.6618
rfemur 6.38746 2.68546 24.3664
rtibia 51.3948
rfoot 20.5247 5.01234
rtoes -1.68825
lfemur -27.5259 -0.646487 -20.8721
ltibia 34.0912
lfoot -4.25959 -4.81925
ltoes 0.251092
250
root -16.2962 16.8789 25.8681 -1.7761 -48.2122 -0.796493
lowerback 7.38922 2.73526 0.0444372
upperback -0.570075 3.74847 2.21349
thorax -4.88172 1.8796 1.83978
lowerneck -14.486 -4.12216 -10.8074
upperneck 23.5534 -4.9201 6.65625
head 10.3612 -2.53083 3.52453
rclavicle -1.73626e-014 -1.98785e-014
rhumerus -28.3523 -12.2808 -78.6699
rradius 43.4077
rwrist -11.422
rhand -15.7411 17.2977
rfingers 7.12502
rthumb 10.45 -12.4226
lclavicle -1.73626e-014 -1.98785e-014
lhumerus -44.3243 22.6111 77.0103
lradius 16.4465
lwrist -21.3414
lhand -15.0934 27.0071
lfingers 7.12502
lthumb 11.0747 56.6949
rfemur 4.79719 2.50322 24.0281
rtibia 54.3677
rfoot 22.9905 4.80428
rtoes -0.382706
lfemur -26.4605 -0.12713 -21.1418
ltibia 34.7031
lfoot -4.80299 -4.60125
ltoes 1.71503
